<?xml version="1.0" encoding="utf-8" standalone="no"?>
<svg width="512" height="512" viewBox="0 0 1024 1024" version="1.1" id="svg16" sodipodi:docname="KenjiBotProfile.svg" inkscape:version="1.4.4 (dcaf3e7, 2026-05-05)" xmlns:inkscape="http://www.inkscape.org/namespaces/inkscape" xmlns:sodipodi="http://sodipodi.sourceforge.net/DTD/sodipodi-0.dtd" xmlns="http://www.w3.org/2000/svg" xmlns:svg="http://www.w3.org/2000/svg">
  <sodipodi:namedview id="namedview16" pagecolor="#ffffff" bordercolor="#000000" borderopacity="0.25" inkscape:showpageshadow="2" inkscape:pageopacity="0.0" inkscape:pagecheckerboard="0" inkscape:deskcolor="#d1d1d1" showguides="true" inkscape:zoom="0.79984123" inkscape:cx="405.08039" inkscape:cy="599.49398" inkscape:window-width="2560" inkscape:window-height="1369" inkscape:window-x="-8" inkscape:window-y="1072" inkscape:window-maximized="1" inkscape:current-layer="layer1" showgrid="true" />
  <g inkscape:groupmode="layer" id="layer1" inkscape:label="Background">
    <circle cx="512" cy="512" r="512" fill="#000000" id="avatar-background" label="Avatar background" />
  </g>
  <g inkscape:groupmode="layer" id="layer2" inkscape:label="Middle" transform="matrix(1.3,0,0,1.3,-153.6,-153.6)">
    <path sodipodi:type="star" style="fill:#000000;fill-opacity:1;stroke-width:1.522;stroke-dasharray:none" id="path19" inkscape:flatsided="true" sodipodi:sides="6" sodipodi:cx="512" sodipodi:cy="512" sodipodi:r1="52.498844" sodipodi:r2="69.998459" sodipodi:arg1="-0.52361148" sodipodi:arg2="-1.2702172e-05" inkscape:rounded="0" inkscape:randomized="0" d="m 557.465,485.75 6.7e-4,52.49884 -45.465,26.25 L 466.535,538.25 l -6.7e-4,-52.49884 45.465,-26.25 z" transform="matrix(7.194489,0,0,7.2763513,-3171.5784,-3213.4919)" inkscape:label="Outer hex" />
    <path sodipodi:type="star" style="fill:#ce0000;fill-opacity:1;stroke-width:1.522;stroke-dasharray:none" id="path19-3" inkscape:flatsided="true" sodipodi:sides="6" sodipodi:cx="512" sodipodi:cy="512" sodipodi:r1="52.498844" sodipodi:r2="69.998459" sodipodi:arg1="-0.52361148" sodipodi:arg2="-1.2702172e-05" inkscape:rounded="0" inkscape:randomized="0" d="m 557.465,485.75 6.7e-4,52.49884 -45.465,26.25 L 466.535,538.25 l -6.7e-4,-52.49884 45.465,-26.25 z" transform="matrix(6.0889556,0,0,6.2015536,-2605.5453,-2663.1954)" inkscape:label="Inner hex" />
    <path sodipodi:type="star" style="fill:#000000;fill-opacity:1;stroke-width:1.522;stroke-dasharray:none" id="path19-7" inkscape:flatsided="true" sodipodi:sides="6" sodipodi:cx="512" sodipodi:cy="512" sodipodi:r1="52.498844" sodipodi:r2="69.998459" sodipodi:arg1="-0.52361148" sodipodi:arg2="-1.2702172e-05" inkscape:rounded="0" inkscape:randomized="0" d="m 557.465,485.75 6.7e-4,52.49884 -45.465,26.25 L 466.535,538.25 l -6.7e-4,-52.49884 45.465,-26.25 z" transform="matrix(4.9618554,0,0,5.1239227,-2028.47,-2111.4484)" inkscape:label="Outer hex" />
  </g>
  <g inkscape:groupmode="layer" id="layer5" inkscape:label="Top" transform="matrix(1.3,0,0,1.3,-153.6,-153.6)">
    <g id="g16" inkscape:label="Center Honeycomb" transform="translate(0,-3.85e-4)">
      <path sodipodi:type="star" style="fill:#cc0000;fill-opacity:1;stroke-width:1.522;stroke-dasharray:none" id="path20-01" inkscape:flatsided="true" sodipodi:sides="6" sodipodi:cx="512" sodipodi:cy="512" sodipodi:r1="69.998459" sodipodi:r2="60.620445" sodipodi:arg1="-0.52361148" sodipodi:arg2="-1.2702172e-05" inkscape:rounded="0" inkscape:randomized="0" d="m 572.62,477 8.9e-4,69.99846 -60.62,35 L 451.38,547 l -8.9e-4,-69.99846 60.62,-35 z" transform="translate(64.620445,112.99923)" inkscape:label="Bottom right" />
      <path sodipodi:type="star" style="fill:#cc0000;fill-opacity:1;stroke-width:1.522;stroke-dasharray:none" id="path20-0" inkscape:flatsided="true" sodipodi:sides="6" sodipodi:cx="512" sodipodi:cy="512" sodipodi:r1="69.998459" sodipodi:r2="60.620445" sodipodi:arg1="-0.52361148" sodipodi:arg2="-1.2702172e-05" inkscape:rounded="0" inkscape:randomized="0" d="m 572.62,477 8.9e-4,69.99846 -60.62,35 L 451.38,547 l -8.9e-4,-69.99846 60.62,-35 z" transform="translate(64.619109,-112.99846)" inkscape:label="Top right" />
      <path sodipodi:type="star" style="fill:#cc0000;fill-opacity:1;stroke-width:1.522;stroke-dasharray:none" id="path20-34" inkscape:flatsided="true" sodipodi:sides="6" sodipodi:cx="512" sodipodi:cy="512" sodipodi:r1="69.998459" sodipodi:r2="60.620445" sodipodi:arg1="-0.52361148" sodipodi:arg2="-1.2702172e-05" inkscape:rounded="0" inkscape:randomized="0" d="m 572.62,477 8.9e-4,69.99846 -60.62,35 L 451.38,547 l -8.9e-4,-69.99846 60.62,-35 z" transform="translate(-64.618662,112.99769)" inkscape:label="Bottom left" />
      <path sodipodi:type="star" style="fill:#cc0000;fill-opacity:1;stroke-width:1.522;stroke-dasharray:none" id="path20-1" inkscape:flatsided="true" sodipodi:sides="6" sodipodi:cx="512" sodipodi:cy="512" sodipodi:r1="69.998459" sodipodi:r2="60.620445" sodipodi:arg1="-0.52361148" sodipodi:arg2="-1.2702172e-05" inkscape:rounded="0" inkscape:randomized="0" d="m 572.62,477 8.9e-4,69.99846 -60.62,35 L 451.38,547 l -8.9e-4,-69.99846 60.62,-35 z" transform="translate(-64.621778,-112.99692)" inkscape:label="Top left" />
      <path sodipodi:type="star" style="fill:#cc0000;fill-opacity:1;stroke-width:1.522;stroke-dasharray:none" id="path20" inkscape:flatsided="true" sodipodi:sides="6" sodipodi:cx="512" sodipodi:cy="512" sodipodi:r1="69.998459" sodipodi:r2="60.620445" sodipodi:arg1="-0.52361148" sodipodi:arg2="-1.2702172e-05" inkscape:rounded="0" inkscape:randomized="0" d="m 572.62,477 8.9e-4,69.99846 -60.62,35 L 451.38,547 l -8.9e-4,-69.99846 60.62,-35 z" inkscape:label="Center" />
      <path sodipodi:type="star" style="fill:#cc0000;fill-opacity:1;stroke-width:1.522;stroke-dasharray:none" id="path20-7" inkscape:flatsided="true" sodipodi:sides="6" sodipodi:cx="512" sodipodi:cy="512" sodipodi:r1="69.998459" sodipodi:r2="60.620445" sodipodi:arg1="-0.52361148" sodipodi:arg2="-1.2702172e-05" inkscape:rounded="0" inkscape:randomized="0" d="m 572.62,477 8.9e-4,69.99846 -60.62,35 L 451.38,547 l -8.9e-4,-69.99846 60.62,-35 z" transform="translate(129.24044,-7.7014647e-4)" inkscape:label="Right" />
      <path sodipodi:type="star" style="fill:#cc0000;fill-opacity:1;stroke-width:1.522;stroke-dasharray:none" id="path20-3" inkscape:flatsided="true" sodipodi:sides="6" sodipodi:cx="512" sodipodi:cy="512" sodipodi:r1="69.998459" sodipodi:r2="60.620445" sodipodi:arg1="-0.52361148" sodipodi:arg2="-1.2702172e-05" inkscape:rounded="0" inkscape:randomized="0" d="m 572.62,477 8.9e-4,69.99846 -60.62,35 L 451.38,547 l -8.9e-4,-69.99846 60.62,-35 z" transform="translate(-129.24044,7.7014647e-4)" inkscape:label="Left" />
    </g>
  </g>
  <defs id="defs9">
    <mask id="outer-cutouts">
      <rect width="1024" height="1024" fill="black" id="rect2" />
      <polygon points="512.00,142.00 832.43,327.00 832.43,697.00 512.00,882.00 191.57,697.00 191.57,327.00" fill="white" id="polygon2" />
      <polygon points="512.00,200.00 782.20,356.00 782.20,668.00 512.00,824.00 241.80,668.00 241.80,356.00" fill="black" id="polygon3" />
      <polygon points="628.91,267.50 665.29,288.50 679.29,264.25 642.91,243.25" fill="black" id="polygon4" />
      <polygon points="782.20,491.00 782.20,533.00 810.20,533.00 810.20,491.00" fill="black" id="polygon5" />
      <polygon points="665.29,735.50 628.91,756.50 642.91,780.75 679.29,759.75" fill="black" id="polygon6" />
      <polygon points="395.09,756.50 358.71,735.50 344.71,759.75 381.09,780.75" fill="black" id="polygon7" />
      <polygon points="241.80,533.00 241.80,491.00 213.80,491.00 213.80,533.00" fill="black" id="polygon8" />
      <polygon points="358.71,288.50 395.09,267.50 381.09,243.25 344.71,264.25" fill="black" id="polygon9" />
    </mask>
    <linearGradient id="redGrad" x1="222.01323" y1="101.07506" x2="1142.7151" y2="1021.777" gradientTransform="matrix(0.6942201,0,0,0.80163768,38.289078,61.939734)" gradientUnits="userSpaceOnUse">
      <stop offset="0%" stop-color="#ff101c" id="stop1" />
      <stop offset="100%" stop-color="#c90010" id="stop2" />
    </linearGradient>
  </defs>
</svg>